<svg xmlns="http://www.w3.org/2000/svg" viewBox="32 -716 3828 723" role="img" aria-label="GooALS">
  <path fill="#FFFFFF" d="M506.0 -473Q489.0 -501 459.5 -516.0Q430.0 -531 390.0 -531Q316.0 -531 273.5 -483.0Q231.0 -435 231.0 -354Q231.0 -263 276.5 -215.5Q322.0 -168 409.0 -168Q512.0 -168 556.0 -261H359.0V-402H725.0V-212Q702.0 -156 657.5 -107.0Q613.0 -58 545.0 -26.5Q477.0 5 390.0 5Q284.0 5 202.5 -40.5Q121.0 -86 76.5 -167.5Q32.0 -249 32.0 -354Q32.0 -458 76.5 -539.5Q121.0 -621 202.0 -666.5Q283.0 -712 389.0 -712Q522.0 -712 609.0 -648.0Q696.0 -584 717.0 -473Z"/>
  <path fill="#FFFFFF" d="M781.0 -281Q781.0 -368 819.5 -433.0Q858.0 -498 924.5 -533.0Q991.0 -568 1075.0 -568Q1159.0 -568 1225.5 -533.0Q1292.0 -498 1330.5 -433.0Q1369.0 -368 1369.0 -281Q1369.0 -194 1330.5 -128.5Q1292.0 -63 1225.0 -28.0Q1158.0 7 1074.0 7Q990.0 7 923.5 -28.0Q857.0 -63 819.0 -128.0Q781.0 -193 781.0 -281ZM1170.0 -281Q1170.0 -338 1142.5 -368.0Q1115.0 -398 1075.0 -398Q1035.0 -398 1008.0 -368.0Q981.0 -338 981.0 -281Q981.0 -223 1007.0 -193.0Q1033.0 -163 1074.0 -163Q1115.0 -163 1142.5 -193.5Q1170.0 -224 1170.0 -281Z"/>
  <path fill="#FFFFFF" d="M1417.0 -281Q1417.0 -368 1455.5 -433.0Q1494.0 -498 1560.5 -533.0Q1627.0 -568 1711.0 -568Q1795.0 -568 1861.5 -533.0Q1928.0 -498 1966.5 -433.0Q2005.0 -368 2005.0 -281Q2005.0 -194 1966.5 -128.5Q1928.0 -63 1861.0 -28.0Q1794.0 7 1710.0 7Q1626.0 7 1559.5 -28.0Q1493.0 -63 1455.0 -128.0Q1417.0 -193 1417.0 -281ZM1806.0 -281Q1806.0 -338 1778.5 -368.0Q1751.0 -398 1711.0 -398Q1671.0 -398 1644.0 -368.0Q1617.0 -338 1617.0 -281Q1617.0 -223 1643.0 -193.0Q1669.0 -163 1710.0 -163Q1751.0 -163 1778.5 -193.5Q1806.0 -224 1806.0 -281Z"/>
  <path fill="#00D1A7" d="M2037.0 0.0 L2406.5 -709.0 L2776.0 0.0 L2580.0 0.0 L2406.5 -332.9 L2233.0 0.0 Z"/>
  <path fill="#00D1A7" d="M3036.0 -150H3255.0V0H2840.0V-705H3036.0Z"/>
  <path fill="#00D1A7" d="M3310.0 -219H3519.0Q3522.0 -182 3541.0 -165.0Q3560.0 -148 3590.0 -148Q3617.0 -148 3634.5 -161.5Q3652.0 -175 3652.0 -199Q3652.0 -230 3623.0 -247.0Q3594.0 -264 3529.0 -285Q3460.0 -308 3417.5 -329.5Q3375.0 -351 3343.5 -392.5Q3312.0 -434 3312.0 -501Q3312.0 -569 3346.0 -617.5Q3380.0 -666 3440.0 -691.0Q3500.0 -716 3576.0 -716Q3699.0 -716 3772.5 -658.5Q3846.0 -601 3851.0 -497H3638.0Q3637.0 -529 3618.5 -545.0Q3600.0 -561 3571.0 -561Q3549.0 -561 3535.0 -548.0Q3521.0 -535 3521.0 -511Q3521.0 -491 3536.5 -476.5Q3552.0 -462 3575.0 -451.5Q3598.0 -441 3643.0 -425Q3710.0 -402 3753.5 -379.5Q3797.0 -357 3828.5 -316.5Q3860.0 -276 3860.0 -214Q3860.0 -151 3828.5 -101.0Q3797.0 -51 3737.5 -22.0Q3678.0 7 3597.0 7Q3474.0 7 3395.0 -51.5Q3316.0 -110 3310.0 -219Z"/>
</svg>
