<svg xmlns="http://www.w3.org/2000/svg" viewBox="-18 -762 880 1022" role="img" aria-label="GooALS">
  <path fill="#0B0B0B" d="M506.0 -473Q489.0 -501 459.5 -516.0Q430.0 -531 390.0 -531Q316.0 -531 273.5 -483.0Q231.0 -435 231.0 -354Q231.0 -263 276.5 -215.5Q322.0 -168 409.0 -168Q512.0 -168 556.0 -261H359.0V-402H725.0V-212Q702.0 -156 657.5 -107.0Q613.0 -58 545.0 -26.5Q477.0 5 390.0 5Q284.0 5 202.5 -40.5Q121.0 -86 76.5 -167.5Q32.0 -249 32.0 -354Q32.0 -458 76.5 -539.5Q121.0 -621 202.0 -666.5Q283.0 -712 389.0 -712Q522.0 -712 609.0 -648.0Q696.0 -584 717.0 -473Z"/>
  <path fill="#F5F5F2" d="M166.8 177.1 L489.4 -488.9 L812.0 177.1 L549.3 177.1 L489.4 53.3 L429.4 177.1 Z"/>
  <path fill="#009E7E" d="M200.1 177.1 L489.4 -425.6 L778.7 177.1 L582.7 177.1 L489.4 -17.2 L396.1 177.1 Z"/>
</svg>
